<svg width="369" height="3" viewBox="0 0 369 3" fill="none" xmlns="http://www.w3.org/2000/svg">
<mask id="path-1-inside-1_40_229" fill="white">
<path d="M0.799988 0.700195H369V2.7002H0.799988V0.700195Z"/>
</mask>
<path d="M369 -0.299805H367.999V1.7002H369V-0.299805ZM365.998 -0.299805H363.997V1.7002H365.998V-0.299805ZM361.996 -0.299805H359.995V1.7002H361.996V-0.299805ZM357.994 -0.299805H355.993V1.7002H357.994V-0.299805ZM353.992 -0.299805H351.991V1.7002H353.992V-0.299805ZM349.99 -0.299805H347.989V1.7002H349.99V-0.299805ZM345.987 -0.299805H343.986V1.7002H345.987V-0.299805ZM341.985 -0.299805H339.984V1.7002H341.985V-0.299805ZM337.983 -0.299805H335.982V1.7002H337.983V-0.299805ZM333.981 -0.299805H331.98V1.7002H333.981V-0.299805ZM329.979 -0.299805H327.978V1.7002H329.979V-0.299805ZM325.977 -0.299805H323.976V1.7002H325.977V-0.299805ZM321.974 -0.299805H319.973V1.7002H321.974V-0.299805ZM317.972 -0.299805H315.971V1.7002H317.972V-0.299805ZM313.97 -0.299805H311.969V1.7002H313.97V-0.299805ZM309.968 -0.299805H307.967V1.7002H309.968V-0.299805ZM305.966 -0.299805H303.965V1.7002H305.966V-0.299805ZM301.964 -0.299805H299.962V1.7002H301.964V-0.299805ZM297.961 -0.299805H295.96V1.7002H297.961V-0.299805ZM293.959 -0.299805H291.958V1.7002H293.959V-0.299805ZM289.957 -0.299805H287.956V1.7002H289.957V-0.299805ZM285.955 -0.299805H283.954V1.7002H285.955V-0.299805ZM281.953 -0.299805H279.952V1.7002H281.953V-0.299805ZM277.951 -0.299805H275.949V1.7002H277.951V-0.299805ZM273.948 -0.299805H271.947V1.7002H273.948V-0.299805ZM269.946 -0.299805H267.945V1.7002H269.946V-0.299805ZM265.944 -0.299805H263.943V1.7002H265.944V-0.299805ZM261.942 -0.299805H259.941V1.7002H261.942V-0.299805ZM257.94 -0.299805H255.939V1.7002H257.94V-0.299805ZM253.938 -0.299805H251.936V1.7002H253.938V-0.299805ZM249.935 -0.299805H247.934V1.7002H249.935V-0.299805ZM245.933 -0.299805H243.932V1.7002H245.933V-0.299805ZM241.931 -0.299805H239.93V1.7002H241.931V-0.299805ZM237.929 -0.299805H235.928V1.7002H237.929V-0.299805ZM233.927 -0.299805H231.926V1.7002H233.927V-0.299805ZM229.925 -0.299805H227.923V1.7002H229.925V-0.299805ZM225.922 -0.299805H223.921V1.7002H225.922V-0.299805ZM221.92 -0.299805H219.919V1.7002H221.92V-0.299805ZM217.918 -0.299805H215.917V1.7002H217.918V-0.299805ZM213.916 -0.299805H211.915V1.7002H213.916V-0.299805ZM209.914 -0.299805H207.913V1.7002H209.914V-0.299805ZM205.912 -0.299805H203.91V1.7002H205.912V-0.299805ZM201.909 -0.299805H199.908V1.7002H201.909V-0.299805ZM197.907 -0.299805H195.906V1.7002H197.907V-0.299805ZM193.905 -0.299805H191.904V1.7002H193.905V-0.299805ZM189.903 -0.299805H187.902V1.7002H189.903V-0.299805ZM185.901 -0.299805H183.9V1.7002H185.901V-0.299805ZM181.899 -0.299805H179.897V1.7002H181.899V-0.299805ZM177.896 -0.299805H175.895V1.7002H177.896V-0.299805ZM173.894 -0.299805H171.893V1.7002H173.894V-0.299805ZM169.892 -0.299805H167.891V1.7002H169.892V-0.299805ZM165.89 -0.299805H163.889V1.7002H165.89V-0.299805ZM161.888 -0.299805H159.887V1.7002H161.888V-0.299805ZM157.886 -0.299805H155.884V1.7002H157.886V-0.299805ZM153.883 -0.299805H151.882V1.7002H153.883V-0.299805ZM149.881 -0.299805H147.88V1.7002H149.881V-0.299805ZM145.879 -0.299805H143.878V1.7002H145.879V-0.299805ZM141.877 -0.299805H139.876V1.7002H141.877V-0.299805ZM137.875 -0.299805H135.874V1.7002H137.875V-0.299805ZM133.873 -0.299805H131.871V1.7002H133.873V-0.299805ZM129.87 -0.299805H127.869V1.7002H129.87V-0.299805ZM125.868 -0.299805H123.867V1.7002H125.868V-0.299805ZM121.866 -0.299805H119.865V1.7002H121.866V-0.299805ZM117.864 -0.299805H115.863V1.7002H117.864V-0.299805ZM113.862 -0.299805H111.861V1.7002H113.862V-0.299805ZM109.86 -0.299805H107.858V1.7002H109.86V-0.299805ZM105.857 -0.299805H103.856V1.7002H105.857V-0.299805ZM101.855 -0.299805H99.8541V1.7002H101.855V-0.299805ZM97.853 -0.299805H95.8519V1.7002H97.853V-0.299805ZM93.8508 -0.299805H91.8497V1.7002H93.8508V-0.299805ZM89.8486 -0.299805H87.8475V1.7002H89.8486V-0.299805ZM85.8464 -0.299805H83.8453V1.7002H85.8464V-0.299805ZM81.8442 -0.299805H79.8431V1.7002H81.8442V-0.299805ZM77.842 -0.299805H75.8409V1.7002H77.842V-0.299805ZM73.8398 -0.299805H71.8387V1.7002H73.8398V-0.299805ZM69.8376 -0.299805H67.8365V1.7002H69.8376V-0.299805ZM65.8354 -0.299805H63.8343V1.7002H65.8354V-0.299805ZM61.8332 -0.299805H59.8321V1.7002H61.8332V-0.299805ZM57.831 -0.299805H55.8299V1.7002H57.831V-0.299805ZM53.8288 -0.299805H51.8277V1.7002H53.8288V-0.299805ZM49.8266 -0.299805H47.8255V1.7002H49.8266V-0.299805ZM45.8244 -0.299805H43.8233V1.7002H45.8244V-0.299805ZM41.8222 -0.299805H39.8211V1.7002H41.8222V-0.299805ZM37.82 -0.299805H35.8189V1.7002H37.82V-0.299805ZM33.8178 -0.299805H31.8167V1.7002H33.8178V-0.299805ZM29.8156 -0.299805H27.8145V1.7002H29.8156V-0.299805ZM25.8134 -0.299805H23.8123V1.7002H25.8134V-0.299805ZM21.8112 -0.299805H19.8101V1.7002H21.8112V-0.299805ZM17.809 -0.299805H15.8079V1.7002H17.809V-0.299805ZM13.8068 -0.299805H11.8057V1.7002H13.8068V-0.299805ZM9.80463 -0.299805H7.80353V1.7002H9.80463V-0.299805ZM5.80244 -0.299805H3.80134V1.7002H5.80244V-0.299805ZM1.80024 -0.299805H0.799988V1.7002H1.80024V-0.299805ZM369 -1.2998H367.999V2.7002H369V-1.2998ZM365.998 -1.2998H363.997V2.7002H365.998V-1.2998ZM361.996 -1.2998H359.995V2.7002H361.996V-1.2998ZM357.994 -1.2998H355.993V2.7002H357.994V-1.2998ZM353.992 -1.2998H351.991V2.7002H353.992V-1.2998ZM349.99 -1.2998H347.989V2.7002H349.99V-1.2998ZM345.987 -1.2998H343.986V2.7002H345.987V-1.2998ZM341.985 -1.2998H339.984V2.7002H341.985V-1.2998ZM337.983 -1.2998H335.982V2.7002H337.983V-1.2998ZM333.981 -1.2998H331.98V2.7002H333.981V-1.2998ZM329.979 -1.2998H327.978V2.7002H329.979V-1.2998ZM325.977 -1.2998H323.976V2.7002H325.977V-1.2998ZM321.974 -1.2998H319.973V2.7002H321.974V-1.2998ZM317.972 -1.2998H315.971V2.7002H317.972V-1.2998ZM313.97 -1.2998H311.969V2.7002H313.97V-1.2998ZM309.968 -1.2998H307.967V2.7002H309.968V-1.2998ZM305.966 -1.2998H303.965V2.7002H305.966V-1.2998ZM301.964 -1.2998H299.962V2.7002H301.964V-1.2998ZM297.961 -1.2998H295.96V2.7002H297.961V-1.2998ZM293.959 -1.2998H291.958V2.7002H293.959V-1.2998ZM289.957 -1.2998H287.956V2.7002H289.957V-1.2998ZM285.955 -1.2998H283.954V2.7002H285.955V-1.2998ZM281.953 -1.2998H279.952V2.7002H281.953V-1.2998ZM277.951 -1.2998H275.949V2.7002H277.951V-1.2998ZM273.948 -1.2998H271.947V2.7002H273.948V-1.2998ZM269.946 -1.2998H267.945V2.7002H269.946V-1.2998ZM265.944 -1.2998H263.943V2.7002H265.944V-1.2998ZM261.942 -1.2998H259.941V2.7002H261.942V-1.2998ZM257.94 -1.2998H255.939V2.7002H257.94V-1.2998ZM253.938 -1.2998H251.936V2.7002H253.938V-1.2998ZM249.935 -1.2998H247.934V2.7002H249.935V-1.2998ZM245.933 -1.2998H243.932V2.7002H245.933V-1.2998ZM241.931 -1.2998H239.93V2.7002H241.931V-1.2998ZM237.929 -1.2998H235.928V2.7002H237.929V-1.2998ZM233.927 -1.2998H231.926V2.7002H233.927V-1.2998ZM229.925 -1.2998H227.923V2.7002H229.925V-1.2998ZM225.922 -1.2998H223.921V2.7002H225.922V-1.2998ZM221.92 -1.2998H219.919V2.7002H221.92V-1.2998ZM217.918 -1.2998H215.917V2.7002H217.918V-1.2998ZM213.916 -1.2998H211.915V2.7002H213.916V-1.2998ZM209.914 -1.2998H207.913V2.7002H209.914V-1.2998ZM205.912 -1.2998H203.91V2.7002H205.912V-1.2998ZM201.909 -1.2998H199.908V2.7002H201.909V-1.2998ZM197.907 -1.2998H195.906V2.7002H197.907V-1.2998ZM193.905 -1.2998H191.904V2.7002H193.905V-1.2998ZM189.903 -1.2998H187.902V2.7002H189.903V-1.2998ZM185.901 -1.2998H183.9V2.7002H185.901V-1.2998ZM181.899 -1.2998H179.897V2.7002H181.899V-1.2998ZM177.896 -1.2998H175.895V2.7002H177.896V-1.2998ZM173.894 -1.2998H171.893V2.7002H173.894V-1.2998ZM169.892 -1.2998H167.891V2.7002H169.892V-1.2998ZM165.89 -1.2998H163.889V2.7002H165.89V-1.2998ZM161.888 -1.2998H159.887V2.7002H161.888V-1.2998ZM157.886 -1.2998H155.884V2.7002H157.886V-1.2998ZM153.883 -1.2998H151.882V2.7002H153.883V-1.2998ZM149.881 -1.2998H147.88V2.7002H149.881V-1.2998ZM145.879 -1.2998H143.878V2.7002H145.879V-1.2998ZM141.877 -1.2998H139.876V2.7002H141.877V-1.2998ZM137.875 -1.2998H135.874V2.7002H137.875V-1.2998ZM133.873 -1.2998H131.871V2.7002H133.873V-1.2998ZM129.87 -1.2998H127.869V2.7002H129.87V-1.2998ZM125.868 -1.2998H123.867V2.7002H125.868V-1.2998ZM121.866 -1.2998H119.865V2.7002H121.866V-1.2998ZM117.864 -1.2998H115.863V2.7002H117.864V-1.2998ZM113.862 -1.2998H111.861V2.7002H113.862V-1.2998ZM109.86 -1.2998H107.858V2.7002H109.86V-1.2998ZM105.857 -1.2998H103.856V2.7002H105.857V-1.2998ZM101.855 -1.2998H99.8541V2.7002H101.855V-1.2998ZM97.853 -1.2998H95.8519V2.7002H97.853V-1.2998ZM93.8508 -1.2998H91.8497V2.7002H93.8508V-1.2998ZM89.8486 -1.2998H87.8475V2.7002H89.8486V-1.2998ZM85.8464 -1.2998H83.8453V2.7002H85.8464V-1.2998ZM81.8442 -1.2998H79.8431V2.7002H81.8442V-1.2998ZM77.842 -1.2998H75.8409V2.7002H77.842V-1.2998ZM73.8398 -1.2998H71.8387V2.7002H73.8398V-1.2998ZM69.8376 -1.2998H67.8365V2.7002H69.8376V-1.2998ZM65.8354 -1.2998H63.8343V2.7002H65.8354V-1.2998ZM61.8332 -1.2998H59.8321V2.7002H61.8332V-1.2998ZM57.831 -1.2998H55.8299V2.7002H57.831V-1.2998ZM53.8288 -1.2998H51.8277V2.7002H53.8288V-1.2998ZM49.8266 -1.2998H47.8255V2.7002H49.8266V-1.2998ZM45.8244 -1.2998H43.8233V2.7002H45.8244V-1.2998ZM41.8222 -1.2998H39.8211V2.7002H41.8222V-1.2998ZM37.82 -1.2998H35.8189V2.7002H37.82V-1.2998ZM33.8178 -1.2998H31.8167V2.7002H33.8178V-1.2998ZM29.8156 -1.2998H27.8145V2.7002H29.8156V-1.2998ZM25.8134 -1.2998H23.8123V2.7002H25.8134V-1.2998ZM21.8112 -1.2998H19.8101V2.7002H21.8112V-1.2998ZM17.809 -1.2998H15.8079V2.7002H17.809V-1.2998ZM13.8068 -1.2998H11.8057V2.7002H13.8068V-1.2998ZM9.80463 -1.2998H7.80353V2.7002H9.80463V-1.2998ZM5.80244 -1.2998H3.80134V2.7002H5.80244V-1.2998ZM1.80024 -1.2998H0.799988V2.7002H1.80024V-1.2998Z" fill="#0C4B88" mask="url(#path-1-inside-1_40_229)"/>
</svg>
